<svg xmlns="http://www.w3.org/2000/svg" width="20.235" height="24.492" viewBox="0 0 20.235 24.492">
  <path id="icon" d="M1012.4,3698.853a5.608,5.608,0,0,1,3.66-1.855,5.347,5.347,0,0,1-1.294,3.911,4.63,4.63,0,0,1-3.685,1.734A5.082,5.082,0,0,1,1012.4,3698.853Zm7.109,19.6c-1.037,1.493-2.109,2.976-3.8,3.007-1.666.032-2.2-.972-4.1-.972s-2.5.941-4.072,1c-1.635.06-2.878-1.613-3.923-3.1-2.135-3.039-3.766-8.594-1.574-12.341a6.094,6.094,0,0,1,5.138-3.07c1.606-.029,3.122,1.066,4.1,1.066s2.823-1.314,4.758-1.122a5.834,5.834,0,0,1,4.544,2.426,5.544,5.544,0,0,0-2.682,4.665,5.417,5.417,0,0,0,3.334,4.953A13.41,13.41,0,0,1,1019.51,3718.45Z" transform="translate(-1000.996 -3696.999)" fill="#fff"/>
</svg>
