<svg xmlns="http://www.w3.org/2000/svg" width="16.405" height="14" viewBox="0 0 16.405 14">
  <path id="Fill" d="M7.707.293a1,1,0,0,1,.083,1.32l-.083.094L3.415,6H15a1,1,0,0,1,.117,1.993L15,8H3.415l4.292,4.293a1,1,0,0,1,.083,1.32l-.083.094a1,1,0,0,1-1.32.083l-.094-.083-6-6A1.008,1.008,0,0,1,.2,7.6L.125,7.484.071,7.371.036,7.266.011,7.148,0,7.09,0,7l0-.075L.02,6.8.05,6.688l.044-.111.052-.1L.21,6.387s-1.438,1.429.083-.094,6-6,6-6A1,1,0,0,1,7.707.293Z" transform="translate(0.405)" fill="#fff"/>
</svg>
