<svg xmlns="http://www.w3.org/2000/svg" width="17" height="17" viewBox="0 0 17 17">
  <path id="sniper" d="M1293.867,884.632h1.1a6.619,6.619,0,0,1,5.686-5.667v-1.1a.867.867,0,0,1,1.735,0v1.1a6.579,6.579,0,0,1,5.648,5.667h1.1a.867.867,0,0,1,0,1.735h-1.1a6.58,6.58,0,0,1-5.648,5.667v1.1a.867.867,0,1,1-1.735,0v-1.1a6.62,6.62,0,0,1-5.686-5.667h-1.1a.867.867,0,0,1,0-1.735Zm6.784,5.646v-.962a.867.867,0,1,1,1.735,0v.962a4.87,4.87,0,0,0,3.891-3.911h-.962a.867.867,0,0,1,0-1.735h.962a4.868,4.868,0,0,0-3.891-3.911v.962a.867.867,0,0,1-1.735,0v-.962a4.841,4.841,0,0,0-3.93,3.911h.962a.867.867,0,0,1,0,1.735h-.962A4.842,4.842,0,0,0,1300.652,890.278Z" transform="translate(-1293 -877)" fill="#a4b0be"/>
</svg>
