<svg xmlns="http://www.w3.org/2000/svg" width="14" height="16" viewBox="0 0 14 16">
  <path id="Shape" d="M11.666,0H2.334A2.37,2.37,0,0,0,0,2.4V12a2.37,2.37,0,0,0,2.334,2.4h.778v.8a.778.778,0,1,0,1.555,0v-.8H9.333v.8a.778.778,0,1,0,1.556,0v-.8h.778A2.37,2.37,0,0,0,14,12V2.4A2.37,2.37,0,0,0,11.666,0ZM1.555,7.2V2.4a.79.79,0,0,1,.778-.8h9.333a.79.79,0,0,1,.778.8V7.2Zm.778,5.6a.79.79,0,0,1-.778-.8V8.8H12.444V12a.79.79,0,0,1-.778.8h-.778V12a.778.778,0,1,0-1.556,0v.8H4.666V12a.778.778,0,1,0-1.555,0v.8ZM10.111,4H7A.8.8,0,0,0,7,5.6h3.111a.8.8,0,0,0,0-1.6ZM3.889,4a.8.8,0,1,0,.778.8A.79.79,0,0,0,3.889,4Z" transform="translate(14 16) rotate(180)" fill="#fff"/>
</svg>
