<svg id="google-icon" xmlns="http://www.w3.org/2000/svg" width="24.511" height="25.011" viewBox="0 0 24.511 25.011">
  <path id="Path_462" data-name="Path 462" d="M142.555,109.318a10.718,10.718,0,0,0-.264-2.557H130.55V111.4h6.892a6.111,6.111,0,0,1-2.557,4.057l-.023.155,3.712,2.876.257.026a12.227,12.227,0,0,0,3.724-9.2" transform="translate(-118.045 -96.534)" fill="#4285f4"/>
  <path id="Path_463" data-name="Path 463" d="M25.1,166.4a11.919,11.919,0,0,0,8.281-3.029l-3.946-3.057a7.4,7.4,0,0,1-4.335,1.251,7.528,7.528,0,0,1-7.114-5.2l-.147.012-3.86,2.987-.05.14A12.5,12.5,0,0,0,25.1,166.4" transform="translate(-12.591 -141.391)" fill="#34a853"/>
  <path id="Path_464" data-name="Path 464" d="M5.391,79.46a7.7,7.7,0,0,1-.417-2.473,8.09,8.09,0,0,1,.4-2.473l-.007-.166L1.462,71.312l-.128.061a12.479,12.479,0,0,0,0,11.227l4.057-3.14" transform="translate(0 -64.481)" fill="#fbbc05"/>
  <path id="Path_465" data-name="Path 465" d="M25.1,4.835A6.931,6.931,0,0,1,29.932,6.7l3.529-3.446A12.015,12.015,0,0,0,25.1,0,12.5,12.5,0,0,0,13.925,6.892l4.043,3.14a7.559,7.559,0,0,1,7.128-5.2" transform="translate(-12.591 0)" fill="#eb4335"/>
</svg>
