<svg xmlns="http://www.w3.org/2000/svg" width="28.266" height="30" viewBox="0 0 28.266 30">
  <g id="box_1"  transform="translate(-0.867 0)">
    <path id="Vector" d="M13.709.1.275,6.582A.487.487,0,0,0,0,7.021V22.979a.487.487,0,0,0,.275.439L13.709,29.9a.975.975,0,0,0,.847,0L27.99,23.418a.487.487,0,0,0,.275-.439V7.021a.487.487,0,0,0-.275-.439L14.557.1A.975.975,0,0,0,13.709.1Z" transform="translate(0.867 0)" fill="#ffe17d"/>
    <path id="Vector-2"  d="M.081,0A.485.485,0,0,0,0,.267V16.225a.487.487,0,0,0,.275.439l13.434,6.485a.974.974,0,0,0,.424.1V6.784Z" transform="translate(0.867 6.754)" fill="#ffc350"/>
    <path id="Vector-3"  d="M14.052,0a.485.485,0,0,1,.081.267V16.225a.487.487,0,0,1-.275.439L.424,23.149a.974.974,0,0,1-.424.1V6.784Z" transform="translate(15 6.754)" fill="#ffd164"/>
    <path id="Vector-4"  d="M2.561,1.976a.486.486,0,0,1-.211-.049L.276.926A.487.487,0,1,1,.7.048l2.074,1a.487.487,0,0,1-.212.926Z" transform="translate(2.326 20.153)" fill="#ffe17d"/>
    <path id="Vector-5"  d="M4.467,2.9a.486.486,0,0,1-.211-.049L.276.926A.487.487,0,1,1,.7.048l3.98,1.921a.487.487,0,0,1-.212.926Z" transform="translate(2.329 17.99)" fill="#fff6d8"/>
    <path id="Vector-6"  d="M17.818,6.812,3.717,0,0,1.8,14.133,8.625Z" transform="translate(6.472 2.233)" fill="#ff8087"/>
    <path id="Vector-7"  d="M0,1.812V7.1a.244.244,0,0,0,.35.219L3.41,5.84A.487.487,0,0,0,3.686,5.4V0Z" transform="translate(20.604 9.045)" fill="#e6646e"/>
  </g>
</svg>
