<svg id="notification" xmlns="http://www.w3.org/2000/svg" width="15.77" height="15.663" viewBox="0 0 15.77 15.663">
  <path id="_Color" d="M7.882,15.658a2.782,2.782,0,0,1-2.875-2.3h5.749a2.787,2.787,0,0,1-2.715,2.3C7.989,15.663,7.935,15.662,7.882,15.658ZM.745,11.805a.748.748,0,0,1-.688-.473.782.782,0,0,1,.16-.834L1.922,8.426a1.543,1.543,0,0,0,.436-1.082V5.358A5.549,5.549,0,0,1,8.043,0a5.684,5.684,0,0,1,5.336,5.578V7.344a1.543,1.543,0,0,0,.436,1.082L15.551,10.5a.781.781,0,0,1,.162.834.746.746,0,0,1-.689.473Z" transform="translate(0)" fill="#a4b0be"/>
</svg>
