<svg id="mdi:truck-fast-outline" xmlns="http://www.w3.org/2000/svg" width="27.476" height="19.758" viewBox="0 0 27.476 19.758">
  <path id="Vector" d="M27.476,4.322H15.436L14.51,6.174H26.55Zm-1.235,3.7H14.2l-.926,1.852h12.04ZM6.174,17.906a1.852,1.852,0,1,1,1.852-1.852A1.85,1.85,0,0,1,6.174,17.906ZM4.322,6.792H7.409V9.879H1.9Zm14.2,11.114a1.852,1.852,0,1,1,1.852-1.852A1.85,1.85,0,0,1,18.523,17.906ZM3.7,4.94,0,9.879v6.174H2.47a3.7,3.7,0,1,0,7.409,0h4.94a3.7,3.7,0,1,0,7.409,0H24.7V11.731h-2.47v1.852h-.939a3.716,3.716,0,0,0-5.532,0H9.879V2.47H24.7A2.461,2.461,0,0,0,22.228,0H7.409V4.94Z" fill="#4349b5"/>
</svg>
