<svg xmlns="http://www.w3.org/2000/svg" width="23.563" height="23.607" viewBox="0 0 23.563 23.607">
  <path id="icon" d="M0,16.175v3.252A2.168,2.168,0,0,0,2.364,21.6a21.455,21.455,0,0,0,9.356-3.328,21.14,21.14,0,0,0,6.5-6.5,21.455,21.455,0,0,0,3.328-9.4A2.168,2.168,0,0,0,19.4,0H16.143a2.168,2.168,0,0,0-2.168,1.865,13.92,13.92,0,0,1-.759,3.046A2.168,2.168,0,0,0,13.7,7.2l1.377,1.377a17.346,17.346,0,0,1-6.5,6.5L7.2,13.7a2.168,2.168,0,0,0-2.287-.488,13.92,13.92,0,0,1-3.046.759A2.168,2.168,0,0,0,0,16.175Z" transform="translate(1.001 1)" fill="none" stroke="#fff" stroke-linecap="round" stroke-linejoin="round" stroke-miterlimit="10" stroke-width="2"/>
</svg>
