<svg id="_Icon" data-name="💚 Icon" xmlns="http://www.w3.org/2000/svg" width="16.461" height="16.063" viewBox="0 0 16.461 16.063">
  <g id="rate-full" transform="translate(0 0)">
    <path id="_Color" data-name="↳ 🎨Color" d="M9.205.617l2.061,4.347,4.22.448a1.08,1.08,0,0,1,.572,1.916l-3.365,2.767,1.041,4.651a1.08,1.08,0,0,1-1.614,1.16L8.229,13.538,4.334,15.9a1.081,1.081,0,0,1-1.615-1.16l1.046-4.65L.4,7.328A1.08,1.08,0,0,1,.973,5.415l4.219-.448L7.252.617a1.081,1.081,0,0,1,1.953,0Z" transform="translate(0 0)" fill="#ff4267"/>
  </g>
</svg>
