<svg id="bx:bx-user" xmlns="http://www.w3.org/2000/svg" width="18.947" height="20" viewBox="0 0 18.947 20">
  <g id="Vector" transform="translate(6.316 2.105)" fill="none">
    <path d="M6.316,3.158A3.158,3.158,0,1,1,3.158,0,3.158,3.158,0,0,1,6.316,3.158Z" stroke="none"/>
    <path d="M 3.157856225967407 0.1999950408935547 C 1.526886463165283 0.1999950408935547 0.1999959945678711 1.526885032653809 0.1999959945678711 3.157855033874512 C 0.1999959945678711 4.788815021514893 1.526886463165283 6.115705013275146 3.157856225967407 6.115705013275146 C 4.788825988769531 6.115705013275146 6.115715980529785 4.788815021514893 6.115715980529785 3.157855033874512 C 6.115715980529785 1.526885032653809 4.788825988769531 0.1999950408935547 3.157856225967407 0.1999950408935547 M 3.157856225967407 -4.76837158203125e-06 C 4.901896476745605 -4.76837158203125e-06 6.31571626663208 1.413815021514893 6.31571626663208 3.157855033874512 C 6.31571626663208 4.901895046234131 4.901896476745605 6.315704822540283 3.157856225967407 6.315704822540283 C 1.413816452026367 6.315704822540283 -3.814697265625e-06 4.901895046234131 -3.814697265625e-06 3.157855033874512 C -3.814697265625e-06 1.413815021514893 1.413816452026367 -4.76837158203125e-06 3.157856225967407 -4.76837158203125e-06 Z" stroke="none" fill="#a4b0be"/>
  </g>
  <g id="Vector-2" data-name="Vector" fill="#a4b0be">
    <path d="M 18.84713745117188 19.89975738525391 L 16.94189834594727 19.89975738525391 L 16.94189834594727 18.9471378326416 C 16.94189834594727 15.98991775512695 14.5360279083252 13.5840482711792 11.57880783081055 13.5840482711792 L 7.368328094482422 13.5840482711792 C 4.411108016967773 13.5840482711792 2.005238056182861 15.98991775512695 2.005238056182861 18.9471378326416 L 2.005238056182861 19.89975738525391 L 0.09999796003103256 19.89975738525391 L 0.09999796003103256 18.9471378326416 C 0.09999796003103256 14.93936824798584 3.360558032989502 11.67880821228027 7.368328094482422 11.67880821228027 L 11.57880783081055 11.67880821228027 C 15.58657836914063 11.67880821228027 18.84713745117188 14.93936824798584 18.84713745117188 18.9471378326416 L 18.84713745117188 19.89975738525391 Z M 9.473567962646484 10.42618751525879 C 6.626627922058105 10.42618751525879 4.310477733612061 8.110037803649902 4.310477733612061 5.263097763061523 C 4.310477733612061 2.416157960891724 6.626627922058105 0.09999793022871017 9.473567962646484 0.09999793022871017 C 12.32050800323486 0.09999793022871017 14.63666820526123 2.416157960891724 14.63666820526123 5.263097763061523 C 14.63666820526123 8.110037803649902 12.32050800323486 10.42618751525879 9.473567962646484 10.42618751525879 Z M 9.473567962646484 2.005237817764282 C 7.677177906036377 2.005237817764282 6.215707778930664 3.466707944869995 6.215707778930664 5.263097763061523 C 6.215707778930664 7.059477806091309 7.677177906036377 8.520947456359863 9.473567962646484 8.520947456359863 C 11.26995754241943 8.520947456359863 12.7314281463623 7.059477806091309 12.7314281463623 5.263097763061523 C 12.7314281463623 3.466707944869995 11.26995754241943 2.005237817764282 9.473567962646484 2.005237817764282 Z" stroke="none"/>
    <path d="M 9.473567962646484 0.1999988555908203 C 6.681768417358398 0.1999988555908203 4.410477638244629 2.471298217773438 4.410477638244629 5.263097763061523 C 4.410477638244629 8.054898262023926 6.681768417358398 10.32618808746338 9.473567962646484 10.32618808746338 C 12.26536750793457 10.32618808746338 14.53665733337402 8.054898262023926 14.53665733337402 5.263097763061523 C 14.53665733337402 2.471298217773438 12.26536750793457 0.1999988555908203 9.473567962646484 0.1999988555908203 M 9.473567962646484 8.62094783782959 C 7.622037887573242 8.62094783782959 6.115708351135254 7.114618301391602 6.115708351135254 5.263097763061523 C 6.115708351135254 3.411567687988281 7.622037887573242 1.905237197875977 9.473567962646484 1.905237197875977 C 11.32509803771973 1.905237197875977 12.83142852783203 3.411567687988281 12.83142852783203 5.263097763061523 C 12.83142852783203 7.114618301391602 11.32509803771973 8.62094783782959 9.473567962646484 8.62094783782959 M 7.368328094482422 11.77880764007568 C 3.415698051452637 11.77880764007568 0.1999988555908203 14.99450778961182 0.1999988555908203 18.9471378326416 L 0.1999988555908203 19.79975700378418 L 1.905237197875977 19.79975700378418 L 1.905237197875977 18.9471378326416 C 1.905237197875977 15.93477821350098 4.35596752166748 13.48404788970947 7.368328094482422 13.48404788970947 L 11.57880783081055 13.48404788970947 C 14.59116744995117 13.48404788970947 17.04189872741699 15.93477821350098 17.04189872741699 18.9471378326416 L 17.04189872741699 19.79975700378418 L 18.74713706970215 19.79975700378418 L 18.74713706970215 18.9471378326416 C 18.74713706970215 14.99450778961182 15.53143787384033 11.77880764007568 11.57880783081055 11.77880764007568 L 7.368328094482422 11.77880764007568 M 9.473567962646484 -1.9073486328125e-06 C 12.37563800811768 -1.9073486328125e-06 14.73665809631348 2.361017227172852 14.73665809631348 5.263097763061523 C 14.73665809631348 8.165167808532715 12.37563800811768 10.52618789672852 9.473567962646484 10.52618789672852 C 6.571497917175293 10.52618789672852 4.210477828979492 8.165167808532715 4.210477828979492 5.263097763061523 C 4.210477828979492 2.361017227172852 6.571497917175293 -1.9073486328125e-06 9.473567962646484 -1.9073486328125e-06 Z M 9.473567962646484 8.420948028564453 C 11.21459770202637 8.420948028564453 12.63142776489258 7.004127502441406 12.63142776489258 5.263097763061523 C 12.63142776489258 3.522058486938477 11.21459770202637 2.10523796081543 9.473567962646484 2.10523796081543 C 7.732538223266602 2.10523796081543 6.315708160400391 3.522058486938477 6.315708160400391 5.263097763061523 C 6.315708160400391 7.004127502441406 7.732538223266602 8.420948028564453 9.473567962646484 8.420948028564453 Z M 7.368328094482422 11.57880783081055 L 11.57880783081055 11.57880783081055 C 15.6408576965332 11.57880783081055 18.9471378326416 14.88507843017578 18.9471378326416 18.9471378326416 L 18.9471378326416 19.99975776672363 L 16.84189796447754 19.99975776672363 L 16.84189796447754 18.9471378326416 C 16.84189796447754 16.04506874084473 14.48087787628174 13.68404769897461 11.57880783081055 13.68404769897461 L 7.368328094482422 13.68404769897461 C 4.46625804901123 13.68404769897461 2.10523796081543 16.04506874084473 2.10523796081543 18.9471378326416 L 2.10523796081543 19.99975776672363 L -1.9073486328125e-06 19.99975776672363 L -1.9073486328125e-06 18.9471378326416 C -1.9073486328125e-06 14.88507843017578 3.305228233337402 11.57880783081055 7.368328094482422 11.57880783081055 Z" stroke="none" fill="#a4b0be"/>
  </g>
</svg>
