<svg id="Weight_Scale" xmlns="http://www.w3.org/2000/svg" width="17.793" height="17.793" viewBox="0 0 17.793 17.793">
  <path id="Path_53793" data-name="Path 53793" d="M20.781,17.714v.342a2.74,2.74,0,0,1-2.737,2.737H5.725a2.74,2.74,0,0,1-2.737-2.737v-.342Zm0-11.976V16.345H2.988V5.737A2.74,2.74,0,0,1,5.725,3H18.044A2.74,2.74,0,0,1,20.781,5.737Zm-6.033,6.825a4.257,4.257,0,0,0-2.843-1.381,5.085,5.085,0,0,0-3.171,1.155l2.726,2.152a.646.646,0,0,0,.847,0Zm3.531-3.333C17.1,5.124,11.742,5.52,11.742,5.52c-5.8.125-6.271,3.793-6.271,3.793a.684.684,0,0,0,.252.648l1.909,1.506A6.879,6.879,0,0,1,11.507,9.82l1.532-2.359a.684.684,0,0,1,1.148.745l-1.15,1.77a6.074,6.074,0,0,1,2.781,1.742l2.229-1.758A.688.688,0,0,0,18.279,9.229Z" transform="translate(-2.988 -3)" fill="#4349b5"/>
</svg>
